<svg width="24" height="27" viewBox="0 0 24 27" fill="none" xmlns="http://www.w3.org/2000/svg">
<g clip-path="url(#clip0_964_17693)">
<g filter="url(#filter0_d_964_17693)">
<path d="M23.71 1.59121C23.575 1.45151 23.4045 1.35479 23.2185 1.31242C23.0325 1.27004 22.8388 1.28378 22.66 1.35201L0.660001 9.67201C0.470269 9.74686 0.306921 9.87996 0.191652 10.0536C0.0763829 10.2273 0.0146484 10.4334 0.0146484 10.6444C0.0146484 10.8555 0.0763829 11.0615 0.191652 11.2352C0.306921 11.4089 0.470269 11.542 0.660001 11.6168L10.26 15.6104L14.1 25.5944C14.1721 25.7831 14.2958 25.9456 14.4557 26.0621C14.6157 26.1785 14.8049 26.2437 15 26.2496C15.2021 26.2453 15.3982 26.1774 15.5624 26.0549C15.7266 25.9323 15.8513 25.7609 15.92 25.5632L23.92 2.68321C23.9881 2.49921 24.0046 2.29886 23.9674 2.10552C23.9302 1.91218 23.8409 1.73381 23.71 1.59121ZM15 22.2976L12.21 15.0176L17 10.036L15.59 8.56961L10.76 13.5928L3.8 10.6496L21.33 4.06641L15 22.2976Z" fill="#8EC2F2"/>
</g>
</g>
<defs>
<filter id="filter0_d_964_17693" x="-3.98535" y="1.28833" width="31.9717" height="32.9613" filterUnits="userSpaceOnUse" color-interpolation-filters="sRGB">
<feFlood flood-opacity="0" result="BackgroundImageFix"/>
<feColorMatrix in="SourceAlpha" type="matrix" values="0 0 0 0 0 0 0 0 0 0 0 0 0 0 0 0 0 0 127 0" result="hardAlpha"/>
<feOffset dy="4"/>
<feGaussianBlur stdDeviation="2"/>
<feComposite in2="hardAlpha" operator="out"/>
<feColorMatrix type="matrix" values="0 0 0 0 0 0 0 0 0 0 0 0 0 0 0 0 0 0 0.25 0"/>
<feBlend mode="normal" in2="BackgroundImageFix" result="effect1_dropShadow_964_17693"/>
<feBlend mode="normal" in="SourceGraphic" in2="effect1_dropShadow_964_17693" result="shape"/>
</filter>
<clipPath id="clip0_964_17693">
<rect width="24" height="26" fill="white" transform="translate(0 0.249634)"/>
</clipPath>
</defs>
</svg>
